PathFileType	4	(X/Y/Z)	/Users/itak/Documents/Research/Walk-IL/dataset/trc/00069_00006.trc
DataRate	CameraRate	NumFrames	NumMarkers	Units	OrigDataRate	OrigDataStartFrame	OrigNumFrames
100.000000	100.000000	4	53	mm	100.000000	573	765
Frame#	Time	RPSI			LPSI			L3			STRN			T10			C7			CLAV			RBAK			LBAK			LSHO			LUPA			LAEL			LAOL			LWTS			LWPS			LFRA			LIFD			LHPS			LHTS			RSHO			RUPA			RAEL			RAOL			RWTS			RWPS			RFRA			RIFD			RHTS			RHPS			RBHD			LFHD			RFHD			LBHD			LHIP			RHIP			RASI			LASI			LKNE			LTHI			LANK			LTIP			LTOE			LMT1			LMT5			LHEE			RKNE			RTHI			RANK			RTIP			RTOE			RMT1			RMT5			RHEE			
		X1	Y1	Z1	X2	Y2	Z2	X3	Y3	Z3	X4	Y4	Z4	X5	Y5	Z5	X6	Y6	Z6	X7	Y7	Z7	X8	Y8	Z8	X9	Y9	Z9	X10	Y10	Z10	X11	Y11	Z11	X12	Y12	Z12	X13	Y13	Z13	X14	Y14	Z14	X15	Y15	Z15	X16	Y16	Z16	X17	Y17	Z17	X18	Y18	Z18	X19	Y19	Z19	X20	Y20	Z20	X21	Y21	Z21	X22	Y22	Z22	X23	Y23	Z23	X24	Y24	Z24	X25	Y25	Z25	X26	Y26	Z26	X27	Y27	Z27	X28	Y28	Z28	X29	Y29	Z29	X30	Y30	Z30	X31	Y31	Z31	X32	Y32	Z32	X33	Y33	Z33	X34	Y34	Z34	X35	Y35	Z35	X36	Y36	Z36	X37	Y37	Z37	X38	Y38	Z38	X39	Y39	Z39	X40	Y40	Z40	X41	Y41	Z41	X42	Y42	Z42	X43	Y43	Z43	X44	Y44	Z44	X45	Y45	Z45	X46	Y46	Z46	X47	Y47	Z47	X48	Y48	Z48	X49	Y49	Z49	X50	Y50	Z50	X51	Y51	Z51	X52	Y52	Z52	X53	Y53	Z53	

574	5.73	711.7115478515625	1009.962646484375	450.8413391113281	859.0510864257812	998.1159057617188	545.2875366210938	789.1083374023438	1068.961059570312	497.3656311035156	634.36962890625	1272.491333007812	696.1839599609375	797.9459228515625	1203.357055664062	484.4674377441406	764.1187744140625	1470.746215820312	527.8217163085938	653.8688354492188	1386.337524414062	670.115234375	742.6539916992188	1330.325317382812	435.9616394042969	857.1792602539062	1434.460205078125	568.3110961914062	856.0674438476562	1440.717041015625	692.5040283203125	932.3341674804688	1317.287231445312	721.5155639648438	948.3203125	1106.262573242188	758.9022827148438	905.6611328125	1083.463256835938	663.2096557617188	836.8099365234375	879.3328857421875	831.5972290039062	916.8848876953125	861.3538208007812	812.862060546875	941.1880493164062	999.7601318359375	791.1286010742188	800.27587890625	699.0333862304688	849.0274658203125	891.5459594726562	784.4192504882812	848.0318603515625	824.069580078125	801.453125	863.43212890625	588.841552734375	1434.932250976562	471.8681945800781	548.4789428710938	1371.116455078125	421.0783996582031	534.406005859375	1118.970703125	344.8222045898438	589.6353149414062	1086.978759765625	421.8456420898438	448.6593322753906	883.3506469726562	498.8188171386719	457.2276916503906	858.4358520507812	415.7853088378906	511.6465454101562	1035.606323242188	349.7384033203125	472.7308654785156	698.7207641601562	532.8037109375	433.6605529785156	780.723388671875	526.9797973632812	433.4435729980469	770.9451904296875	449.4966735839844	769.341064453125	1666.11669921875	638.633544921875	555.7315063476562	1665.043334960938	606.3812255859375	610.6798095703125	1683.65966796875	718.6870727539062	703.0826416015625	1638.459106445312	521.584228515625	867.8809204101562	949.8995361328125	689.5462646484375	609.7745361328125	939.3082885742188	460.4629821777344	549.4884033203125	962.614990234375	571.0818481445312	757.2030029296875	967.3463134765625	741.6929321289062	685.697998046875	537.14208984375	878.9984130859375	765.3305053710938	663.7022094726562	832.558837890625	905.0276489257812	118.0247497558594	737.5079345703125	811.5005493164062	316.8062744140625	812.61865234375	770.6998901367188	71.3924560546875	878.8687744140625	760.9727783203125	77.02037048339844	809.6414794921875	869.9244384765625	82.81182861328125	833.72607421875	881.5414428710938	128.9849395751953	649.559326171875	631.6248168945312	500.203369140625	595.427490234375	571.4236450195312	762.9122924804688	549.9373779296875	749.7020874023438	33.90674591064453	541.0604858398438	656.6651000976562	373.692138671875	589.321044921875	700.5887451171875	38.47251892089844	754.4006958007812	759.20166015625	40.37056350708008	714.2943725585938	687.8653564453125	43.63997268676758	647.6796264648438	819.0780029296875	35.61708450317383	521.7094116210938	
575	5.74	710.313720703125	1009.652526855469	457.4056701660156	856.2802124023438	997.971435546875	554.1406860351562	787.1446533203125	1068.643188476562	504.8400268554688	629.490234375	1272.13720703125	701.4549560546875	795.998046875	1203.102783203125	492.0372009277344	761.3610229492188	1470.462524414062	534.8631591796875	649.2590942382812	1385.916137695312	675.586181640625	741.1548461914062	1330.0458984375	442.7496032714844	853.8627319335938	1434.200317382812	576.5669555664062	851.1964721679688	1440.409545898438	700.729248046875	927.263427734375	1317.06396484375	730.5697631835938	943.1414794921875	1105.9833984375	767.6735229492188	901.7808837890625	1083.350341796875	671.3353881835938	832.0017700195312	878.0291137695312	837.9058227539062	912.4498291015625	860.7515258789062	820.2669677734375	936.160888671875	999.3528442382812	799.3945922851562	796.4879150390625	697.351806640625	853.889404296875	887.1729736328125	783.474365234375	854.706298828125	819.3187255859375	799.9371337890625	869.2012939453125	586.8309936523438	1434.581420898438	476.6421203613281	547.1765747070312	1370.780395507812	425.2943420410156	534.05126953125	1118.515502929688	348.886474609375	588.247802734375	1086.7021484375	426.7333984375	446.2334594726562	884.0355224609375	503.2852783203125	455.6045227050781	858.4931030273438	420.5241088867188	511.1502685546875	1035.068603515625	353.754150390625	469.5850219726562	699.6340942382812	538.8621215820312	430.7549438476562	781.6636352539062	532.0391845703125	431.2793579101562	771.2570190429688	454.6977844238281	765.393798828125	1665.706665039062	645.5529174804688	551.9970703125	1664.816162109375	611.1190795898438	605.9942626953125	1683.368530273438	724.0543212890625	700.2603149414062	1638.109130859375	527.8531494140625	862.9611206054688	949.9191284179688	698.6043090820312	608.3052368164062	939.059814453125	465.5029602050781	546.2335205078125	962.253173828125	575.1560668945312	751.349609375	967.3281860351562	748.9563598632812	674.9196166992188	539.0477294921875	886.0308837890625	756.6074829101562	664.6066284179688	840.7078247070312	886.1301879882812	109.3315200805664	766.9634399414062	796.3782958984375	313.6661071777344	831.4310302734375	744.1932983398438	72.13887786865234	903.6510620117188	737.76708984375	75.72209930419922	833.9138793945312	845.6765747070312	78.61656188964844	862.652587890625	866.6868896484375	118.182746887207	677.7977294921875	629.840087890625	499.7954711914062	597.9252319335938	569.1482543945312	762.5139770507812	553.6663208007812	749.7224731445312	33.99216461181641	541.1156005859375	655.4231567382812	373.3711242675781	591.2007446289062	700.20751953125	38.27449417114258	754.4746704101562	759.0604858398438	40.29821395874023	714.358642578125	687.7962036132812	43.38944244384766	647.7496948242188	819.11181640625	35.86378479003906	521.7262573242188	
576	5.75	708.8036499023438	1009.281860351562	463.9841918945312	853.3881225585938	997.7755737304688	562.94287109375	785.032958984375	1068.25390625	512.3619995117188	624.5842895507812	1271.723999023438	706.6861572265625	793.9849853515625	1202.764038085938	499.6016845703125	758.5457763671875	1470.090087890625	541.8884887695312	644.6865234375	1385.43603515625	681.0702514648438	739.5888061523438	1329.673706054688	449.5535583496094	850.4786987304688	1433.867431640625	584.79541015625	846.2648315429688	1440.050659179688	708.9016723632812	922.1152954101562	1316.790161132812	739.5845947265625	937.8896484375	1105.658325195312	776.41796875	897.783203125	1083.18994140625	679.4699096679688	827.26025390625	876.6878662109375	844.2959594726562	908.022216796875	860.1146240234375	827.681396484375	931.0965576171875	998.9031982421875	807.6412353515625	792.8268432617188	695.6082763671875	858.7830810546875	882.8402709960938	782.47705078125	861.37744140625	814.659423828125	798.3572998046875	875.0245361328125	584.8107299804688	1434.161987304688	481.4206237792969	545.8603515625	1370.368041992188	429.5177001953125	533.7450561523438	1117.982421875	352.9930725097656	586.9270629882812	1086.350341796875	431.6109008789062	443.8372497558594	884.627197265625	507.7335510253906	453.9659423828125	858.4698486328125	425.264892578125	510.6773376464844	1034.435424804688	357.8540344238281	466.4216613769531	700.4578247070312	544.8558959960938	427.8567504882812	782.5153198242188	537.0426635742188	429.1101989746094	771.4954833984375	459.8532409667969	761.3765258789062	1665.227172851562	652.4590454101562	548.2316284179688	1664.5078125	615.8896484375	601.260986328125	1682.980346679688	729.42138671875	697.36865234375	1637.707641601562	534.1184692382812	858.0146484375	949.8631591796875	707.5640869140625	606.7451782226562	938.7625122070312	470.5605773925781	542.9354858398438	961.8361206054688	579.253662109375	745.45947265625	967.1795043945312	756.153564453125	664.65234375	540.6009521484375	892.5747680664062	748.1759643554688	665.26806640625	848.5134887695312	866.0550537109375	101.1295547485352	795.9683227539062	780.9420776367188	310.6529235839844	849.740234375	717.031005859375	73.48023986816406	927.3756103515625	713.8278198242188	74.93971252441406	857.3326416015625	820.4300537109375	75.01418304443359	890.7587890625	850.574951171875	107.6978225708008	705.8758544921875	627.9937133789062	499.3245849609375	600.562744140625	566.7793579101562	762.0748901367188	557.4290161132812	749.745361328125	34.08461380004883	541.1693725585938	654.0794067382812	373.0029907226562	593.1582641601562	699.8235473632812	38.06405639648438	754.5586547851562	758.9083251953125	40.24759292602539	714.4197387695312	687.6654663085938	43.12107086181641	647.7742309570312	819.1688842773438	36.15171432495117	521.7654418945312	
577	5.76	707.1887817382812	1008.845703125	470.5738830566406	850.379150390625	997.5073852539062	571.6976318359375	782.7705688476562	1067.783935546875	519.9281005859375	619.6513671875	1271.239990234375	711.8850708007812	791.8905029296875	1202.33056640625	507.1599731445312	755.669189453125	1469.623291015625	548.9066772460938	640.1776123046875	1384.901611328125	686.6040649414062	737.9510498046875	1329.204711914062	456.3750610351562	847.0225219726562	1433.450561523438	592.9953002929688	841.2753295898438	1439.627197265625	717.0232543945312	916.8949584960938	1316.452270507812	748.5530395507812	932.5829467773438	1105.275634765625	785.1277465820312	893.6846923828125	1082.968872070312	687.6082763671875	822.5602416992188	875.3081665039062	850.7575073242188	903.5799560546875	859.4384765625	835.11865234375	925.9944458007812	998.4020385742188	815.8694458007812	789.2666625976562	693.8175048828125	863.7308349609375	878.5281372070312	781.4324951171875	868.0662841796875	810.0761108398438	796.7257690429688	880.9189453125	582.7738647460938	1433.668334960938	486.2119750976562	544.5202026367188	1369.87841796875	433.7566528320312	533.490478515625	1117.366943359375	357.1328735351562	585.6634521484375	1085.914306640625	436.4895324707031	441.4561462402344	885.1204833984375	512.1621704101562	452.3198547363281	858.3544311523438	430.0123291015625	510.2301025390625	1033.707397460938	362.0291137695312	463.2347717285156	701.1865844726562	550.8137817382812	424.9523010253906	783.2796630859375	542.0004272460938	426.9451293945312	771.6597290039062	464.9665222167969	757.29150390625	1664.672973632812	659.3505859375	544.4472045898438	1664.113159179688	620.6975708007812	596.477783203125	1682.49853515625	734.7859497070312	694.4115600585938	1637.2421875	540.3819580078125	853.0415649414062	949.7057495117188	716.4308471679688	605.0949096679688	938.4144897460938	475.6311645507812	539.6061401367188	961.3562622070312	583.3731689453125	739.52197265625	966.8773193359375	763.2837524414062	654.9591674804688	541.76611328125	898.6581420898438	740.080810546875	665.6582641601562	855.989990234375	844.861083984375	93.52602386474609	824.3954467773438	765.2420654296875	307.7844543457031	867.5084838867188	689.3972778320312	75.49849700927734	950.0206909179688	689.2688598632812	74.73635864257812	879.8746948242188	794.3233032226562	72.12431335449219	917.9552001953125	833.2344360351562	97.64432525634766	733.6549072265625	626.087158203125	498.7838134765625	603.3281860351562	564.3236694335938	761.5912475585938	561.2106323242188	749.7704467773438	34.18249893188477	541.2191162109375	652.610107421875	372.5797729492188	595.18115234375	699.4627685546875	37.85028457641602	754.6439208984375	758.742431640625	40.23064804077148	714.469970703125	687.4520263671875	42.83658218383789	647.7461547851562	819.25439453125	36.48284530639648	521.830322265625	
